PathFileType	4	(X/Y/Z)	Patient5_TMGait_0pt45_1_left_08.trc.trc
DataRate	CameraRate	NumFrames	NumMarkers	Units	OrigDataRate	OrigDataStartFrame	OrigNumFrames
57.851239669421	57.851239669421	7	32	mm	57.851239669421	1	       141
Frame#	Time	R.ASIS			L.ASIS			Chest			R.Shoulder			Neck			L.Shoulder			L.Elbow			L.Wrist			R.Elbow			R.Wrist			L.Thigh.Superior			L.Thigh.Lateral			L.Thigh.Inferior			L.Patella			L.Shank.Superior			L.Shank.Lateral			L.Shank.Inferior			L.Heel			L.Midfoot.Lateral			L.Midfoot.Superior			L.Toe			R.Thigh.Superior			R.Thigh.Lateral			R.Thigh.Inferior			R.Patella			R.Shank.Superior			R.Shank.Lateral			R.Shank.Inferior			R.Heel			R.Midfoot.Lateral			R.Midfoot.Superior			R.Toe			
		X1	Y1	Z1	X2	Y2	Z2	X3	Y3	Z3	X4	Y4	Z4	X5	Y5	Z5	X6	Y6	Z6	X7	Y7	Z7	X8	Y8	Z8	X9	Y9	Z9	X10	Y10	Z10	X11	Y11	Z11	X12	Y12	Z12	X13	Y13	Z13	X14	Y14	Z14	X15	Y15	Z15	X16	Y16	Z16	X17	Y17	Z17	X18	Y18	Z18	X19	Y19	Z19	X20	Y20	Z20	X21	Y21	Z21	X22	Y22	Z22	X23	Y23	Z23	X24	Y24	Z24	X25	Y25	Z25	X26	Y26	Z26	X27	Y27	Z27	X28	Y28	Z28	X29	Y29	Z29	X30	Y30	Z30	X31	Y31	Z31	X32	Y32	Z32	

1	11.750000000000	1050.192707086742	973.326843281362	583.626095031881	1032.676648759269	957.756277941497	341.984544345198	1101.689665622851	1433.203244656959	491.068026553143	1004.082784521516	1486.371935367007	662.560371692422	974.690558007323	1555.530904208109	482.761437153774	1034.489647024577	1509.748021894501	298.810463911301	939.411093887441	1205.145955974423	155.190366932259	1035.332050749473	932.383394582166	135.300598994653	931.161492035796	1161.301500011687	792.638279519284	1147.486912995334	983.592723982507	716.141412079524	1043.636702300879	731.689437631470	315.224056661635	965.255887507728	668.115943057620	270.970350075084	1040.127090958766	600.772062576557	319.713769795479	1019.269818139651	459.307787467974	306.741075767325	920.231218212562	386.259500735619	333.159784832245	820.052321357943	371.879756859063	262.398376465879	824.099352284499	305.761663656224	347.815171567781	581.517072243392	188.701925349081	345.605323636606	637.887074142068	105.264465162855	301.491468867108	751.688469197689	104.085802418065	341.836351651400	807.875497303009	40.169903493837	370.041075397299	1077.777125019765	744.779559699450	604.271517944872	996.476574979742	660.475091018721	651.652421035385	1082.427770345975	617.172391194255	577.081220960299	1088.004431005843	519.541001517434	602.170584626363	1052.621875970406	419.588163026322	560.525940330519	984.115813784247	345.738500930405	639.710836268569	1041.495766086838	279.922505017019	555.489783657066	928.570633627202	53.410660853294	514.900378844137	1005.017683173645	25.081950776022	590.459093818015	1111.727803614144	88.290394372048	569.167970664217	1215.245701662522	43.758442071393	572.344573472628	
2	11.767285714286	1051.642562861284	972.128209639312	584.293465400842	1031.059393031545	956.652864801615	344.436472285967	1104.365432528213	1431.478939395310	493.376226329078	1008.988558718667	1484.771890507437	665.982477690025	977.278510088821	1554.193629441560	486.520492953273	1034.906674549290	1508.356762455420	301.916981172904	936.196589867173	1204.493113362776	159.248659263265	1030.130661767318	931.135465014230	138.446670377681	938.237090080716	1159.790862566034	797.535574843342	1156.402154817340	985.167999353162	719.759850109368	1051.634584780004	734.295089841595	314.039129478481	976.873686991142	667.909915207728	270.303357356578	1055.710526719237	604.071261189091	318.058794444049	1040.035008085483	461.272978849385	306.426949424494	938.959637511028	388.032167035120	332.354898486236	839.669204150847	376.404642801989	260.163845488602	839.911400966823	311.108197977553	345.864771047328	595.050746965062	210.616956116453	341.455491514661	644.274419175326	122.984818428476	298.361789981510	756.653678823508	112.594784176202	340.500352900058	805.106469032739	39.302956335977	368.770392637278	1073.134173671430	742.722546642347	603.832643600970	990.322974363695	660.505881676665	653.268957622805	1072.695420751946	615.080040262203	576.622073671433	1076.765823257736	518.361121302282	601.716692512248	1040.538160165806	419.701272567994	561.051247788807	974.175585743292	345.707031642527	640.954995595217	1031.179417227141	280.385469898590	555.920614275348	920.186685707660	53.204108726719	515.084424739880	996.660352605666	24.951394139624	590.647192841041	1103.290582774471	88.225262003790	569.185674273194	1206.911904851220	43.749672833460	572.281623074693	
3	11.784571428571	1052.805315742704	970.943483886223	585.142294890371	1029.402212871036	955.582576641824	346.895909479750	1106.944935651645	1429.782680878996	495.490267097135	1013.771195630682	1483.163362555940	669.184777273177	979.822593880714	1552.878866320360	490.085517319827	1035.262008198484	1507.041694169707	304.840672910794	933.002981807824	1203.759045012964	163.365981470918	1025.033110190796	929.858857114834	141.506091427302	945.378735944518	1158.287573168452	802.271691530498	1165.132695184208	986.336810051179	723.413055350779	1059.380643421461	737.166727932319	313.270364398350	988.245344541288	667.979875831940	269.919849479998	1070.890432871875	607.726986252958	316.828404611070	1060.375224325673	463.560601689552	306.350980514582	957.358093543817	390.140100991596	331.796569072895	858.993162242112	381.083828062606	258.169814111899	855.551455000690	316.661854350988	344.213669126515	608.576413356199	231.570283879508	337.623402986889	651.328686174374	140.139825804168	295.361660335925	762.304990046985	121.203312334990	339.304095714127	803.467575405949	38.913584571213	367.512393137229	1068.417718008620	740.728056680056	603.596148047117	984.112095147280	660.519683081230	654.916519968636	1063.161357474803	613.096019672205	576.402840272953	1065.781195048368	517.203454083686	601.461477309115	1028.746510424796	419.837127336084	561.652276010171	964.328127235145	345.702249970728	642.192954134456	1021.039906099899	280.842878447541	556.416033973764	911.896562740015	53.027203558652	515.270360622786	988.384195182109	24.821945002974	590.827047824219	1094.935941813016	88.167293069392	569.218735866641	1198.662498142099	43.755033519900	572.229147419016	
4	11.801857142857	1053.453582994470	969.815392587429	586.305927374451	1027.704756831318	954.614505365587	349.355569399705	1109.359951070858	1428.149548267428	497.247713084368	1018.340843628841	1481.587426971106	671.959423192239	982.305016008625	1551.633185197487	493.260456299291	1035.563340380058	1505.866771030916	307.409860439161	929.904720678451	1202.917406628914	167.504685964075	1020.195391802439	928.561953621640	144.439378254225	952.603524217290	1156.860481184443	806.691438599853	1173.487893611939	986.818264775645	727.104582188063	1066.636370406854	740.534971896057	313.255738124174	999.134785956784	668.600928946501	270.047391767567	1085.267719723560	612.047461548538	316.381539500464	1079.882975071705	466.495599601975	306.724553896529	975.158482603230	392.829568792580	331.696483300805	877.737738855531	385.951638967171	256.689973096104	870.942768267891	322.429003214286	343.131892684417	622.159968028638	250.263142084414	334.502333019359	659.793493230589	155.880577802099	292.660085661301	769.482067610302	129.765449104542	338.347164425368	804.404069982499	39.344419958757	366.177187739682	1063.662697860944	738.873574577486	603.730263341173	977.899171469121	660.510180220418	656.589900825015	1054.111264230953	611.316110695426	576.590373249493	1055.374264078881	516.095598401082	601.543367997434	1017.595214928731	419.998570854260	562.370409638540	954.740541032263	345.747282391533	643.400440375794	1011.280924193996	281.273869738164	557.009046594785	903.751332808256	52.903456941790	515.460799685855	980.238437235444	24.699883974255	590.994016168749	1086.717137696386	88.120562922684	569.276009366835	1190.546053942216	43.780898528528	572.195593421659	
5	11.819142857143	1053.434913922173	968.795343981969	587.921315504040	1026.010783788767	953.831915565341	351.803097437377	1111.586977032097	1426.608804354044	498.547321596332	1022.671778357675	1480.107683209269	674.163780161708	984.738858086378	1550.508824658502	495.905239137154	1035.861360437085	1504.877659637771	309.507990522337	926.990332904220	1201.994093337396	171.576213252263	1015.761929308594	927.281945183335	147.262909173003	959.911491184574	1155.603610731793	810.687285908855	1181.341088650186	986.480030145075	730.830291509873	1073.255861431531	744.547826279453	314.202690694544	1009.405835687054	669.986397059876	270.818445162943	1098.580346855089	617.231969044114	316.950889262980	1098.300528671048	470.323737765379	307.690122179914	992.227970201923	396.227730618641	332.181650691628	895.704124071738	390.986786190961	255.950670747891	886.116233532271	328.286333046134	342.791787427043	635.851992087621	265.472487518818	332.452582993913	670.287209162842	169.356588507472	290.419315594526	778.966644691878	138.037879412103	337.658054862039	809.371731949789	40.876995956077	364.609629360572	1058.973057476424	737.236791737794	604.358885202893	971.824742874934	660.483727938171	658.274723778402	1045.845924804097	609.814074732775	577.272577369772	1045.865049768448	515.068527616976	602.042128057920	1007.410810320263	420.168386941951	563.230554824530	945.608069135193	345.849764144516	644.555486912867	1002.081026621905	281.644601403687	557.711983279953	895.743063226137	52.846456100854	515.661436869903	972.218714646207	24.592277011459	591.147816563695	1078.635558586428	88.085029269767	569.361740359982	1182.556698241402	43.829084039794	572.187147300874	
6	11.836428571429	1052.709053310517	967.935049403207	590.067469677122	1024.396907437518	953.318267737554	354.208230317960	1113.641980940172	1425.184521069529	499.361940238823	1026.781976718474	1478.806593868358	675.731968970981	987.154709720360	1549.557084651991	497.942694408642	1036.246521462300	1504.089496697081	311.080287125531	924.364210591902	1201.057434980146	175.434421045824	1011.868801399566	926.076749577779	150.029166408549	967.244697848081	1154.627172577374	814.201827373208	1188.609975805376	985.373499563610	734.555160264024	1079.168883408480	749.232299861411	316.142303757157	1018.989910608797	672.246093279010	272.241276759988	1110.678347358626	623.322894479983	318.597431710384	1115.480069582744	475.163864589023	309.296033768314	1008.533712446765	400.306596621204	333.279789746103	912.763050535109	396.064300266295	256.099171090272	901.166138172889	333.966958432880	343.254883785848	649.717758069639	276.170816570132	331.747520616360	683.212630146856	179.794123728219	288.774921844536	791.351588466603	145.665514765763	337.195010543331	819.565730935693	43.602952246416	362.616989780015	1054.511468862400	735.883390867308	605.512715497674	966.093933171798	660.455678032058	659.931702418308	1038.637757188797	608.626435981513	578.428170007665	1037.521709542818	514.150250491566	602.949910811935	998.454410916469	420.317319454009	564.221927246868	937.133965946695	346.005314956849	645.630095983259	993.582607933190	281.919470123864	558.504498516599	887.835249647787	52.857781952028	515.876270115708	964.297089457188	24.506612312726	591.290195125205	1070.670776803932	88.057483826549	569.472755029572	1174.665269942363	43.895376368566	572.206796941706	
7	11.853714285714	1051.361626542745	967.273182442985	592.702526059680	1022.941256867787	953.136037391370	356.519257916063	1115.565618167662	1423.893783334700	499.733581518818	1030.703468918808	1477.771460541627	676.671372852406	989.584893654765	1548.817437599711	499.354907731378	1036.831715590229	1503.479848121898	312.128632738562	922.139257423339	1200.189178387315	178.898288021453	1008.636298398865	925.002841980613	152.795744953077	974.473543168090	1154.039217477189	817.226822855387	1195.239108034613	983.721770698123	738.202790323479	1084.353339319782	754.495045590747	318.931793026327	1027.848876422395	675.366599616023	274.206221038959	1121.491520854744	630.206184243680	321.207831170910	1131.349283258544	480.997465391104	311.493808183879	1024.114561715720	404.897734955107	334.932061427276	928.863451546002	400.936941346051	257.183486696555	916.223646812364	339.099005954557	344.484250555327	663.920977176630	281.649654389749	332.523529874734	698.753019126753	186.599651512866	287.812610976633	806.965597223218	152.213382130819	336.875742624633	835.663381926429	47.327176562271	360.024282525987	1050.449491330719	734.846181388759	607.105518531336	960.905376885753	660.442669650076	661.493721143006	1032.649960127801	607.738853450669	579.928717312890	1030.481900771404	513.354559193759	604.165672430920	990.848234363369	420.417175224939	565.289031271889	929.465428754489	346.205862156559	646.587720384550	985.856590698937	282.076414703833	559.333833635883	879.984314428313	52.927534936226	516.102956832369	956.442004786105	24.449459569628	591.422616698641	1062.797898695145	88.033645742246	569.598828193069	1166.839481245161	43.971097818287	572.253651093522	
